<svg xmlns="http://www.w3.org/2000/svg" xmlns:xlink="http://www.w3.org/1999/xlink" xmlns:lucid="lucid" width="1445.17" height="898.5"><g transform="translate(-105.83333333333337 -40)" lucid:page-tab-id="0_0"><path d="M220 66c0-3.3 2.7-6 6-6h1268c3.3 0 6 2.7 6 6v488c0 3.3-2.7 6-6 6H226c-3.3 0-6-2.7-6-6z" stroke="#5e5e5e" stroke-width="3" fill="#c1e4f7"/><path d="M240 346c0-3.3 2.7-6 6-6h228c3.3 0 6 2.7 6 6v148c0 3.3-2.7 6-6 6H246c-3.3 0-6-2.7-6-6z" stroke="#5e5e5e" stroke-width="3" fill="#99d2f2"/><use xlink:href="#a" transform="matrix(1,0,0,1,252.00000000000003,352) translate(63.61728395061728 60.27777777777778)"/><use xlink:href="#b" transform="matrix(1,0,0,1,252.00000000000003,352) translate(65.53086419753086 86.94444444444446)"/><path d="M640 346.07c0-3.3 2.7-6 6-6h348c3.3 0 6 2.7 6 6v148c0 3.32-2.7 6-6 6H646c-3.3 0-6-2.68-6-6z" stroke="#5e5e5e" stroke-width="3" fill="#99d2f2"/><use xlink:href="#c" transform="matrix(1,0,0,1,652,352.07262164124904) translate(124.79012345679013 60.27777777777778)"/><use xlink:href="#d" transform="matrix(1,0,0,1,652,352.07262164124904) translate(124.91358024691357 86.94444444444446)"/><path d="M1320 468c0 6.63-26.86 12-60 12s-60-5.37-60-12v-96c0-6.63 26.86-12 60-12s60 5.37 60 12z" stroke="#5e5e5e" stroke-width="3" fill="#99d2f2"/><path d="M1320 372c0 6.63-26.86 12-60 12s-60-5.37-60-12" stroke="#5e5e5e" stroke-width="3" fill="none"/><use xlink:href="#e" transform="matrix(1,0,0,1,1205,389) translate(39.598765432098766 47.34027777777778)"/><path d="M1047.78 401.08H1020v-2h27.78zM1180 401l-27.78.03v-2L1180 399zM1019 404.72l-14.26-4.64 14.26-4.63z" fill="#5e5e5e"/><path d="M1020 406.1l-18.5-6.02 18.5-6zm-12.03-6.02l10.03 3.26v-6.52zM1195.26 400l-14.26 4.64v-9.28z" fill="#5e5e5e"/><path d="M1198.5 400l-18.5 6v-12zm-16.5 3.26l10.03-3.26-10.03-3.26z" fill="#5e5e5e"/><use xlink:href="#f" transform="matrix(1,0,0,1,1047.7777777777778,389.3745032404499) translate(0.005000000000002558 14.222222222222223)"/><use xlink:href="#g" transform="matrix(1,0,0,1,1047.7777777777778,389.3745032404499) translate(53.1901851851852 14.222222222222223)"/><path d="M660 426c0-3.3 2.7-6 6-6h68c3.3 0 6 2.7 6 6v48c0 3.3-2.7 6-6 6h-68c-3.3 0-6-2.7-6-6z" stroke="#5e5e5e" stroke-width="3" fill="#3aa6dd"/><use xlink:href="#h" transform="matrix(1,0,0,1,672,432) translate(3.987654320987655 22.27777777777778)"/><path d="M240 106c0-3.3 2.7-6 6-6h348c3.3 0 6 2.7 6 6v148c0 3.3-2.7 6-6 6H246c-3.3 0-6-2.7-6-6z" stroke="#5e5e5e" stroke-width="3" fill="#99d2f2"/><use xlink:href="#i" transform="matrix(1,0,0,1,252.00000000000003,112) translate(116.85802469135803 60.27777777777778)"/><use xlink:href="#j" transform="matrix(1,0,0,1,252.00000000000003,112) translate(168 86.94444444444446)"/><path d="M260 186c0-3.3 2.7-6 6-6h68c3.3 0 6 2.7 6 6v48c0 3.3-2.7 6-6 6h-68c-3.3 0-6-2.7-6-6z" stroke="#5e5e5e" stroke-width="3" fill="#3aa6dd"/><use xlink:href="#h" transform="matrix(1,0,0,1,272,192.00000000000003) translate(3.987654320987655 22.27777777777778)"/><path d="M720 106.2c0-3.3 2.7-6 6-6h228c3.3 0 6 2.7 6 6v148c0 3.33-2.7 6-6 6H726c-3.3 0-6-2.67-6-6z" stroke="#5e5e5e" stroke-width="3" fill="#99d2f2"/><path d="M830.6 144.45c-.6-.56-1.36-.96-2.2-.96-.9 0-1.6.3-2.2.95h-.1c-.52.56-.9 1.37-.9 2.25 0 .9.3 1.6.9 2.25h.1c.6.65 1.3.97 2.2.9.84 0 1.6-.33 2.2-.9.54-.56.92-1.36.92-2.25 0-.88-.3-1.6-.9-2.25zm-2.2 43.67c.84 0 1.6-.4 2.2-.96.54-.56.92-1.37.92-2.25 0-.88-.38-1.68-.9-2.25-.62-.56-1.38-.96-2.22-.96-.9 0-1.68.3-2.2.95h-.1c-.6.65-.9 1.37-.9 2.26 0 .9.3 1.6.9 2.26h.1c.6.64 1.3.96 2.2.96zm17.05-9.65c.84-.24 1.53-.72 1.9-1.53l.08-.08c.38-.72.46-1.52.23-2.33-.23-.8-.68-1.53-1.44-1.93h-.08c-.7-.48-1.52-.56-2.3-.32-.82.16-1.5.72-1.9 1.53-.45.73-.52 1.54-.37 2.42.23.8.76 1.45 1.52 1.93.75.4 1.6.48 2.35.32zm-13.85-15.92c-.84-.8-1.98-1.37-3.2-1.37-1.3 0-2.36.48-3.27 1.37-.77.8-1.3 2-1.3 3.3 0 1.2.46 2.33 1.3 3.2.83.9 1.97 1.38 3.27 1.38 1.22 0 2.36-.48 3.2-1.37.83-.88 1.3-2 1.3-3.22 0-1.28-.47-2.4-1.3-3.3zm-1.83-5.47c1.9.32 3.43 1.12 4.72 2.5l.6.63 3.12-1.84c-.46-1.28-.46-2.57-.08-3.94.4-1.7 1.53-3.2 3.13-4.18h.07c1.6-.96 3.28-1.12 5.03-.64 1.82.48 3.2 1.53 4.1 3.2.92 1.62 1.15 3.47.7 5.16-.46 1.77-1.53 3.3-3.13 4.18l-.45.33c-1.54.72-3.2.8-4.73.4-1.3-.4-2.37-1.05-3.28-2l-3.13 1.76c.38 1.12.6 2 .6 3.13s-.22 2.18-.6 3.14l3.12 1.85c.9-1.04 2.05-1.7 3.27-2.1 1.67-.4 3.57-.23 5.17.73l.08.08c1.6.97 2.6 2.34 3.04 4.1.46 1.86.3 3.54-.68 5.23v.07h-.08c-.9 1.6-2.2 2.66-4.03 3.14-1.68.4-3.5.25-5.1-.7-1.6-.98-2.67-2.35-3.2-4.2-.3-1.36-.3-2.57.15-3.86l-3.12-1.85-.6.64c-1.23 1.28-2.9 2.17-4.73 2.4v3.7c1.37.33 2.44.9 3.35 1.86l.08.08c1.2 1.2 1.98 2.9 1.98 4.83 0 1.86-.7 3.46-1.98 4.83h-.08c-1.22 1.3-2.9 2.1-4.72 2.1-1.9 0-3.58-.8-4.8-2.1-1.37-1.37-1.98-2.97-1.98-4.82 0-1.92.76-3.6 1.98-4.82V180c.92-.97 2.06-1.53 3.35-1.85v-3.7c-1.82-.24-3.42-1.13-4.72-2.4-1.67-1.78-2.5-3.87-2.5-6.3 0-2.4.98-4.57 2.5-6.18 1.37-1.37 2.9-2.17 4.72-2.5v-3.7c-1.3-.23-2.36-.88-3.35-1.84-1.3-1.37-1.98-2.98-1.98-4.83 0-1.93.7-3.54 1.98-4.9 1.22-1.2 2.9-2 4.8-2 1.83 0 3.5.8 4.8 2 1.2 1.28 1.98 2.97 1.98 4.9 0 1.85-.7 3.46-1.98 4.83-.92.96-2.14 1.6-3.43 1.85v3.7zm17.6-2.42v-.08c-.47-.72-1.08-1.2-1.92-1.44-.83-.16-1.6-.08-2.36.32-.77.48-1.3 1.2-1.45 2-.23.8-.16 1.62.3 2.42.46.73 1.14 1.3 1.9 1.45.77.24 1.6.16 2.37-.32h.07c.68-.47 1.2-1.12 1.36-1.92.23-.8.15-1.7-.3-2.42M800 198.02h3.8v11.74l5.4-6.1h4.58l-6.62 7.06 6.62 9h-4.34l-5.63-8.03v8.03H800v-21.7m18.12 13.74c0 1.93 1.45 4.9 4.8 4.9 2.13 0 3.5-1.12 4.26-2.65.38-.64.53-1.45.6-2.25 0-.72-.14-1.53-.45-2.25-.68-1.53-2.13-2.82-4.4-2.82-3.06 0-4.8 2.5-4.8 5v.07zm13.4 7.96h-3.8v-2.33c-1 1.85-3.13 2.8-5.34 2.8-5.02 0-8-4-8-8.5 0-5.16 3.6-8.62 8-8.62 2.9 0 4.65 1.6 5.33 2.9v-2.33h3.82v16.08m4.26-13.2h-1.98v-2.88h1.98v-.97c0-4.74 3.58-5.07 6.25-5.07v3c-.92 0-2.5 0-2.5 2.24v.8h2.5v2.98h-2.5v13.1h-3.75v-13.18m8.84-8.52h3.8v11.74l5.4-6.1h4.58l-6.63 7.06 6.63 9h-4.34l-5.64-8.03v8.03h-3.8v-21.7m18.12 13.74c0 1.93 1.44 4.9 4.87 4.9 2.07 0 3.44-1.12 4.2-2.65.38-.64.53-1.45.6-2.25 0-.72-.15-1.53-.45-2.25-.7-1.53-2.13-2.82-4.42-2.82-3.04 0-4.8 2.5-4.8 5v.07zm13.4 7.96h-3.8v-2.33c-1 1.85-3.06 2.8-5.34 2.8-5.02 0-8-4-8-8.5 0-5.16 3.58-8.62 8-8.62 2.9 0 4.64 1.6 5.33 2.9v-2.33h3.8v16.08" stroke="#000" stroke-opacity="0" fill="#231f20"/><path d="M844 320.07v-39.85" stroke="#5e5e5e" stroke-width="2" fill="none"/><path d="M844 335.34l-4.64-14.27h9.28zM844 264.95l4.64 14.27h-9.28z" stroke="#5e5e5e" stroke-width="2" fill="#5e5e5e"/><path d="M700 180.2h-80" stroke="#5e5e5e" stroke-width="2" fill="none"/><path d="M715.26 180.2L701 184.86v-9.27zM604.74 180.2L619 175.6v9.27z" stroke="#5e5e5e" stroke-width="2" fill="#5e5e5e"/><path d="M1012.53 742.64c0-2.34-2.66-4.14-5.7-4.14h-368.6c-3.04 0-5.7 1.8-5.7 4.14v171.72c0 2.34 2.66 4.14 5.7 4.14h368.6c3.04 0 5.7-1.8 5.7-4.14V742.64z" stroke="#565656" stroke-width="1.4" fill="#ffdf71"/><path d="M1012.53 742.64c0-2.34-2.66-4.14-5.7-4.14h-368.6c-3.04 0-5.7 1.8-5.7 4.14v171.72c0 2.34 2.66 4.14 5.7 4.14h368.6c3.04 0 5.7-1.8 5.7-4.14V742.64z" stroke="#000" stroke-opacity="0" stroke-width=".28" fill="#ffdf71"/><path d="M638.23 738.5c-3.04 0-5.7 1.62-5.7 3.42v24.66h380v-24.66c0-1.8-2.66-3.42-5.7-3.42h-368.6z" stroke="#000" stroke-opacity="0" stroke-width=".28" fill="#e8e8e8"/><path d="M652.67 752.54c0 1.08-1.14 2.16-3.04 2.16-1.52 0-2.66-1.08-2.66-2.16s1.14-1.98 2.66-1.98c1.9 0 3.04.9 3.04 1.98zM664.07 752.54c0 1.08-1.52 2.16-3.04 2.16s-3.04-1.08-3.04-2.16 1.5-1.98 3.03-1.98c1.52 0 3.04.9 3.04 1.98zM675.1 752.54c0 1.08-1.15 2.16-2.67 2.16s-3.04-1.08-3.04-2.16 1.5-1.98 3.03-1.98c1.52 0 2.66.9 2.66 1.98z" stroke="#000" stroke-opacity="0" stroke-width=".16" fill="#949494"/><path d="M689.53 746.6h288.04c.76 0 1.52.36 1.52.9v10.08c0 .72-.77.9-1.53.9H689.53c-.76 0-1.52-.18-1.52-.9V747.5c0-.54.77-.9 1.53-.9z" stroke="#000" stroke-opacity="0" stroke-width=".28" fill="#fff"/><path d="M701.7 749.66c-2.3 0-4.2 1.26-4.2 2.88 0 1.62 1.9 2.88 4.2 2.88 1.9 0 3.03-.72 3.8-1.8v-.18c-.4 0-.77-.18-1.15-.18v.18c-.38.54-1.52 1.08-2.66 1.08-1.53 0-2.67-.9-2.67-1.98s1.14-1.98 2.66-1.98c1.13 0 2.27.54 2.65 1.26h-.76l1.5 1.26 1.53-1.26h-1.14c-.4-1.26-1.9-2.16-3.8-2.16zM989.73 749.48h10.64v1.62h-10.64v-1.62zM989.73 751.82h10.64v1.62h-10.64v-1.62zM989.73 753.98h10.64v1.62h-10.64v-1.62z" stroke="#000" stroke-opacity="0" stroke-width=".28" fill="#949494"/><path d="M632.53 766.4h380v.9h-380v-.9z" stroke="#000" stroke-opacity="0" stroke-width=".28" fill="#dedede"/><path d="M711.67 749.9h64.83v4.34h-64.83z" fill="none"/><use xlink:href="#k" transform="matrix(1,0,0,1,711.6672386650105,749.8994033897347) translate(0 3.5820895522388057)"/><path d="M361 875.03l.7 2.65 1.8 1.77 2.63.72h247.2v2H365.87l-3.42-.93-2.53-2.53-.92-3.4V690.63h2zm0-205.73h-2V520h2zM628.6 881.17l-14.27 4.63v-9.27z" fill="#5e5e5e"/><path d="M631.83 881.17l-18.5 6v-12.02zm-16.5 3.26l10.03-3.26-10.03-3.26zM364.64 519h-9.28l4.64-14.26z" fill="#5e5e5e"/><path d="M366 520h-12l6-18.5zm-9.26-2h6.52L360 507.97z" fill="#5e5e5e"/><use xlink:href="#l" transform="matrix(1,0,0,1,318.8148148148148,669.2957849178907) translate(0.005000000000002558 14.222222222222223)"/><use xlink:href="#m" transform="matrix(1,0,0,1,318.8148148148148,669.2957849178907) translate(50.869197530864206 14.222222222222223)"/><use xlink:href="#n" transform="matrix(1,0,0,1,368,844.871097991867) translate(0.0049999999999954525 14.222222222222223)"/><path d="M783.67 719.3h-2v-44.5h2zm0-65.82h-2v-133.4h2zM782.67 734.56l-4.64-14.26h9.27z" fill="#5e5e5e"/><path d="M782.67 737.8l-6.02-18.5h12.03zm-3.26-16.5l3.27 10.03 3.26-10.03zM787.3 519.07h-9.27l4.64-14.26z" fill="#5e5e5e"/><path d="M788.68 520.07h-12.03l6.02-18.5zm-9.27-2h6.53l-3.26-10.03z" fill="#5e5e5e"/><use xlink:href="#o" transform="matrix(1,0,0,1,725.9753086419754,653.4787168779865) translate(0.005000000000002558 14.222222222222223)"/><use xlink:href="#p" transform="matrix(1,0,0,1,725.9753086419754,653.4787168779865) translate(52.25191358024692 14.222222222222223)"/><path d="M700 808.3c0-3.3 2.7-6 6-6h228c3.3 0 6 2.7 6 6v51.34c0 3.3-2.7 6-6 6H706c-3.3 0-6-2.7-6-6z" stroke="#000" stroke-opacity="0" stroke-width="3" fill="#fff" fill-opacity="0"/><use xlink:href="#q" transform="matrix(1,0,0,1,705,807.3044564969836) translate(48.672839506172835 31.27777777777778)"/><use xlink:href="#r" transform="matrix(1,0,0,1,705,807.3044564969836) translate(100.03086419753086 31.27777777777778)"/><path d="M1459.2 136.16c1.85-1.4 3.6-2.8 5.45-4.2.56-.5 1.28-1 1.84-1.5-.5-.55-1.3-.97-2-1.2-1.37-.47-2.73-.32-4 .35-1.7.9-2.4 2.3-2.4 4.04.07.7.23 1.35.63 1.94l.48.58m2.1 1.33c.87.27 1.9.24 2.8.08.47-.17 1.67-.64 2.07-.57h.08l.08.05c.24.12.48.27.64.53.32.57.16 1.14-.48 1.47l-.17.12c-2.32 1.2-4.8 1.04-7.04-.1-1.13-.52-1.92-1.33-2.56-2.3l-.16-.23c-1.44-2.33-1.28-4.77.4-6.98.56-.76 1.27-1.36 2.15-1.8l.4-.18c2.16-1.14 4.48-1.08 6.72-.07 1.12.54 2.16 1.34 2.8 2.4l.08.18c.56.76-.08 1.44-.72 1.88-.8.54-1.5 1.18-2.23 1.73-1.68 1.25-3.28 2.53-4.88 3.8zm17.26-10.58h.24c.72 0 1.2.45 1.2 1.1 0 .92-.96 1.15-1.76 1.15-1.12 0-2.16.6-2.88 1.27-.96.83-1.36 1.9-1.36 3.1v5.32c0 .62-.4 1.1-1.12 1.1h-.23c-.64 0-1.12-.48-1.12-1.1v-5.63c0-2.16 1.2-3.94 3.1-5.17 1.2-.74 2.5-1.14 3.93-1.14zm-30.22 3.78c.96-.84 1.84-1.7 2.8-2.55.32-.23 1.28-1.23 1.68-1.23h.48v.02c.56.1.96.4.96.95v.2c0 .37-.4.8-.72 1.07l-1.68 1.57-2.96 2.7c1.28 1.15 2.56 2.3 3.76 3.45.4.32.72.65 1.04.96.16.12.32.26.4.43.16.13.16.3.16.47v.3c-.08.5-.48.9-1.04.9h-.24c-.4 0-.88-.42-1.12-.64l-1.68-1.5-1.84-1.67v2.66c0 .6-.4 1.1-1.12 1.1h-.16c-.72 0-1.12-.5-1.12-1.1v-14.96c0-.6.4-1.1 1.12-1.1h.16c.72 0 1.12.5 1.12 1.1v6.84zm-7.9-1.48c-.33-.16-1.05-.2-1.45-.23-2-.08-3.45.96-4.33 2.58-.32.56-.4 1.16-.4 1.78 0 1.9 1.04 3.2 2.88 4 .72.3 1.6.36 2.32.36.64 0 1.6-.36 2.16-.6l.08-.06h.5v.02c.55.1 1.03.4 1.03.95v.22c0 1.35-2.72 1.65-3.76 1.72-3.68.22-6.4-1.6-7.44-4.74-.16-.53-.24-1.1-.24-1.66v-.43c0-2.38 1.35-4.3 3.6-5.5 1.03-.57 2.15-.86 3.43-.86h.48c1.3 0 2.5.35 3.53 1l.08.06.1.08c.07.17.23.38.23.6v.2c0 .57-.48.86-1.04.96l-.1.02h-.15c-.32-.02-1.12-.34-1.52-.48zm-22.08 4.18c0 1.68.88 2.9 2.48 3.78.72.4 1.52.6 2.4.6 1.76 0 3.12-.86 4.08-2.26.48-.65.64-1.4.64-2.16 0-1.57-.8-2.74-2.24-3.6-.8-.5-1.6-.72-2.56-.72-2 0-3.52.94-4.4 2.58-.24.57-.4 1.16-.4 1.78zm4.56-6.57h.32c2.8 0 4.96 1.25 6.3 3.48.57.9.8 1.86.8 2.87v.45c0 2.4-1.27 4.3-3.5 5.5-1.04.55-2.24.85-3.44.85h-.48c-2.64 0-4.72-1.18-6.08-3.24-.56-.95-.88-2-.88-3.1v-.46c0-2.38 1.28-4.26 3.52-5.5 1.04-.56 2.24-.84 3.44-.84zm-20.47 6.57c0 1.73.96 3.02 2.64 3.85.63.33 1.35.52 2.15.52 1.84 0 3.2-.8 4.16-2.23.5-.67.65-1.4.65-2.18 0-1.5-.72-2.66-2.08-3.54-.8-.52-1.68-.78-2.72-.78-2 0-3.44.94-4.32 2.58-.32.57-.48 1.16-.48 1.78zm9.6-4.93v-4.64c0-.63.48-1.1 1.12-1.1h.24c.72 0 1.12.47 1.12 1.1v9.8c0 2.38-1.27 4.28-3.6 5.5-1.03.54-2.15.84-3.43.84h-.5c-2.63 0-4.7-1.18-6-3.24-.63-.95-.95-2-.95-3.1v-.46c0-2.38 1.28-4.28 3.6-5.5 1.04-.56 2.16-.84 3.36-.84h.5c1.83 0 3.35.62 4.55 1.64zM1446.12 92h7.22v6.64h3.57c1.7 0 3.44-.24 4.98-.74.77-.24 1.68-.57 2.45-.98-1.05-1.2-1.54-2.72-1.68-4.2-.2-2.06.2-4.7 1.75-6.27l.77-.78.84.62c2.32 1.64 4.2 3.94 4.5 6.58 2.72-.74 5.94-.54 8.32.7l.98.53-.5.92c-2.02 3.58-6.3 4.7-10.42 4.5-6.16 14.03-19.68 20.66-36 20.66-8.47 0-16.24-2.88-20.65-9.67l-.07-.12-.63-1.2c-1.47-3-1.96-6.25-1.68-9.55l.14-1h6.08v-6.62h7.14v-6.5h14.36V79h8.54v13z" stroke="#000" stroke-opacity="0" fill="#394d54"/><path d="M1469.35 94.47c.47-3.4-2.36-6.04-4.04-7.32-2 2.1-2.34 7.57.82 9.9-1.75 1.4-5.45 2.7-9.2 2.7h-45.88c-.34 3.57.33 6.86 1.95 9.67l.46.86c.34.5.74 1 1.14 1.47 1.9.13 3.57.16 5.18.13 3.16-.06 5.65-.42 7.6-1.02.27-.07.6.06.74.32.07.25-.07.54-.34.64-.26.1-.53.16-.8.22-1.55.38-3.16.67-5.32.8h-.13c-.07 0-.13 0-.2.03-.8.03-1.75.03-2.62.03-1 0-2 0-3.1-.06l-.06.03c3.84 3.9 9.82 6.23 17.3 6.23 15.86 0 29.3-6.4 35.23-20.7 4.24.38 8.34-.6 10.16-3.87-2.96-1.56-6.73-1.05-8.88-.06z" stroke="#000" stroke-opacity="0" fill="#00aada"/><path d="M1469.34 94.46c.44-3.38-2.35-6.05-4.03-7.3-2 2.08-2.33 7.57.8 9.88-1.73 1.43-5.42 2.7-9.16 2.7h-43.17c-.17 5.46 2.07 9.64 6.03 12.14 3.13-.06 5.64-.42 7.6-1.02.28-.08.6.06.67.33.1.24 0 .5-.34.62-.22.08-.5.14-.78.22-1.5.4-3.3.7-5.42.83l-.05-.06c5.4 2.54 13.23 2.5 22.22-.62 10.06-3.5 19.38-10.2 25.9-17.83-.1.03-.15.08-.26.1z" stroke="#000" stroke-opacity="0" fill="#24b8eb"/><path d="M1411.15 104.08c.27 1.9.92 3.7 1.84 5.34l.47.86c.33.5.7 1 1.08 1.47 1.9.12 3.67.15 5.23.12 3.13-.06 5.66-.4 7.6-1 .28-.1.6.04.7.3.1.27-.05.55-.32.64-.27.1-.54.18-.8.24-1.52.4-3.3.67-5.4.8h-.27c-.82.05-1.73.07-2.65.07-.97 0-2 0-3.13-.05 3.83 3.9 9.87 6.25 17.37 6.25 13.52 0 25.33-4.7 32.18-15.02h-53.93z" stroke="#000" stroke-opacity="0" fill="#008bb8"/><path d="M1414.2 104.08c.8 3.36 2.77 6 5.6 7.8 3.1-.06 5.64-.4 7.57-1 .3-.1.63.04.72.3.07.26-.06.54-.33.64-.27.07-.54.16-.8.22-1.53.4-3.37.7-5.47.8 5.42 2.5 13.22 2.47 22.18-.65 5.42-1.9 10.62-4.72 15.32-8.12h-44.8z" stroke="#000" stroke-opacity="0" fill="#039bc6"/><path d="M1422.5 93.56h.48v4.7h-.5v-4.7zm-.96 0h.5v4.7h-.5v-4.7zm-.93 0h.52v4.7h-.5v-4.7zm-.93 0h.5v4.7h-.5v-4.7zm-.95 0h.52v4.7h-.52v-4.7zm-.9 0h.48v4.7h-.5v-4.7zm-.53-.47h6.2v5.62h-6.2V93.1zM1429.64 87.05h.5v4.7h-.5v-4.7zm-.94 0h.5v4.7h-.5v-4.7zm-.94 0h.5v4.7h-.5v-4.7zm-.94 0h.5v4.7h-.5v-4.7zm-.94 0h.5v4.7h-.5v-4.7zm-.92 0h.5v4.7h-.5v-4.7zm-.52-.46h6.2v5.62h-6.2V86.6z" stroke="#000" stroke-opacity="0" fill="#00acd3"/><path d="M1429.64 93.56h.5v4.7h-.5v-4.7zm-.94 0h.5v4.7h-.5v-4.7zm-.94 0h.5v4.7h-.5v-4.7zm-.94 0h.5v4.7h-.5v-4.7zm-.94 0h.5v4.7h-.5v-4.7zm-.92 0h.5v4.7h-.5v-4.7zm-.52-.47h6.2v5.62h-6.2V93.1z" stroke="#000" stroke-opacity="0" fill="#20c2ef"/><path d="M1436.8 93.56h.5v4.7h-.5v-4.7zm-.95 0h.5v4.7h-.5v-4.7zm-.93 0h.5v4.7h-.5v-4.7zm-.94 0h.5v4.7h-.5v-4.7zm-.94 0h.5v4.7h-.5v-4.7zm-.93 0h.5v4.7h-.5v-4.7zm-.5-.47h6.2v5.62h-6.2V93.1z" stroke="#000" stroke-opacity="0" fill="#00acd3"/><path d="M1436.8 87.05h.5v4.7h-.5v-4.7zm-.95 0h.5v4.7h-.5v-4.7zm-.93 0h.5v4.7h-.5v-4.7zm-.94 0h.5v4.7h-.5v-4.7zm-.94 0h.5v4.7h-.5v-4.7zm-.93 0h.5v4.7h-.5v-4.7zm-.5-.46h6.2v5.62h-6.2V86.6zM1443.95 93.56h.5v4.7h-.5v-4.7zm-.94 0h.52v4.7h-.5v-4.7zm-.93 0h.5v4.7h-.5v-4.7zm-.94 0h.5v4.7h-.5v-4.7zm-.94 0h.5v4.7h-.5v-4.7zm-.93 0h.5v4.7h-.5v-4.7zm-.52-.47h6.2v5.62h-6.2V93.1z" stroke="#000" stroke-opacity="0" fill="#20c2ef"/><path d="M1443.95 87.05h.5v4.7h-.5v-4.7zm-.94 0h.52v4.7h-.5v-4.7zm-.93 0h.5v4.7h-.5v-4.7zm-.94 0h.5v4.7h-.5v-4.7zm-.94 0h.5v4.7h-.5v-4.7zm-.93 0h.5v4.7h-.5v-4.7zm-.52-.46h6.2v5.62h-6.2V86.6z" stroke="#000" stroke-opacity="0" fill="#00acd3"/><path d="M1443.95 80.55h.5v4.7h-.5v-4.7zm-.94 0h.52v4.7h-.5v-4.7zm-.93 0h.5v4.7h-.5v-4.7zm-.94 0h.5v4.7h-.5v-4.7zm-.94 0h.5v4.7h-.5v-4.7zm-.93 0h.5v4.7h-.5v-4.7zm-.52-.47h6.2v5.64h-6.2v-5.64z" stroke="#000" stroke-opacity="0" fill="#20c2ef"/><path d="M1451.1 93.56h.5v4.7h-.5v-4.7zm-.94 0h.5v4.7h-.5v-4.7zm-.93 0h.5v4.7h-.5v-4.7zm-.95 0h.5v4.7h-.5v-4.7zm-.93 0h.5v4.7h-.5v-4.7zm-.93 0h.5v4.7h-.5v-4.7zm-.5-.47h6.2v5.62h-6.2V93.1z" stroke="#000" stroke-opacity="0" fill="#00acd3"/><path d="M1430.26 107.86c.94 0 1.7.7 1.7 1.56 0 .85-.76 1.55-1.7 1.55-.95 0-1.7-.7-1.7-1.55 0-.86.75-1.56 1.7-1.56" stroke="#000" stroke-opacity="0" fill="#d4edf1"/><path d="M1430.26 108.3c.15 0 .3.03.44.08-.15.08-.25.22-.25.4 0 .24.22.44.5.44.2 0 .36-.1.44-.23.05.12.08.26.08.42 0 .6-.55 1.1-1.22 1.1-.68 0-1.23-.5-1.23-1.1 0-.62.55-1.12 1.23-1.12M1400 104.64H1479.58c-1.75-.4-5.5-.94-4.86-3-3.18 3.3-10.74 2.32-12.65.7-2.15 2.8-14.56 1.73-15.44-.46-2.7 2.85-10.98 2.85-13.68 0-.88 2.2-13.3 3.26-15.44.45-1.9 1.63-9.46 2.62-12.65-.7.64 2.07-3.1 2.6-4.85 3" stroke="#000" stroke-opacity="0" fill="#394d54"/><path d="M1434.8 119.06c-4.24-1.82-6.55-4.3-7.86-7.02-1.57.4-3.46.67-5.66.8-.82.03-1.7.05-2.6.05-1.06 0-2.17-.04-3.34-.1 3.9 3.53 8.66 6.25 17.52 6.3.64 0 1.3 0 1.94-.04z" stroke="#000" stroke-opacity="0" fill="#bfdbe0"/><path d="M1428.52 114.54c-.58-.72-1.15-1.63-1.57-2.5-1.57.4-3.46.67-5.66.8 1.5.73 3.66 1.42 7.22 1.7z" stroke="#000" stroke-opacity="0" fill="#d4edf1"/><path d="M141 620h10.28m10.28 0h41.12m10.28 0h20.55m10.3 0h41.1m10.3 0h20.55m10.28 0h41.12m10.28 0H398m10.26 0h41.12m10.28 0h20.56m10.28 0h41.12m10.28 0h20.56m10.28 0h41.1m10.3 0h20.55m10.27 0h41.12m10.27 0h20.56m10.28 0h41.12m10.28 0h20.56m10.28 0h41.12m10.28 0h20.56m10.28 0h41.1m10.3 0h20.55m10.28 0h41.13m10.28 0h20.57m10.28 0h41.1m10.3 0h20.55m10.28 0h41.12m10.28 0h20.56m10.28 0h41.12m10.27 0h20.57m10.28 0h41.12m10.28 0h20.56m10.3 0h41.1m10.3 0h20.54m10.28 0h41.12m10.28 0H1539M141.03 620H140M1538.97 620h1.03" stroke="#5e5e5e" stroke-width="2" fill="none"/><g><path d="M131.83 814.17c-3.3 0-6-2.7-6-6V671.83c0-3.3 2.7-6 6-6h28c3.32 0 6 2.7 6 6v136.34c0 3.3-2.68 6-6 6z" stroke="#5e5e5e" stroke-width="3" fill="#ffeca9"/></g><g><use xlink:href="#s" transform="matrix(6.123233995736766e-17,-1,1,6.123233995736766e-17,130.83333333333337,809.1666666666667) translate(41.19753086419753 19.65277777777778)"/></g><g><path d="M131.83 528.33c-3.3 0-6-2.68-6-6V386c0-3.3 2.7-6 6-6h28c3.32 0 6 2.7 6 6v136.33c0 3.32-2.68 6-6 6z" stroke="#5e5e5e" stroke-width="3" fill="#c1e4f7"/></g><g><use xlink:href="#t" transform="matrix(6.123233995736766e-17,-1,1,6.123233995736766e-17,130.83333333333337,523.3333333333333) translate(36.845679012345684 19.65277777777778)"/></g><defs><path fill="#333" d="M63-220v92h138v28H63V0H30v-248h175v28H63" id="u"/><path fill="#333" d="M114-163C36-179 61-72 57 0H25l-1-190h30c1 12-1 29 2 39 6-27 23-49 58-41v29" id="v"/><path fill="#333" d="M100-194c62-1 85 37 85 99 1 63-27 99-86 99S16-35 15-95c0-66 28-99 85-99zM99-20c44 1 53-31 53-75 0-43-8-75-51-75s-53 32-53 75 10 74 51 75" id="w"/><path fill="#333" d="M117-194c89-4 53 116 60 194h-32v-121c0-31-8-49-39-48C34-167 62-67 57 0H25l-1-190h30c1 10-1 24 2 32 11-22 29-35 61-36" id="x"/><path fill="#333" d="M59-47c-2 24 18 29 38 22v24C64 9 27 4 27-40v-127H5v-23h24l9-43h21v43h35v23H59v120" id="y"/><path fill="#333" d="M100-194c63 0 86 42 84 106H49c0 40 14 67 53 68 26 1 43-12 49-29l28 8c-11 28-37 45-77 45C44 4 14-33 15-96c1-61 26-98 85-98zm52 81c6-60-76-77-97-28-3 7-6 17-6 28h103" id="z"/><path fill="#333" d="M85-194c31 0 48 13 60 33l-1-100h32l1 261h-30c-2-10 0-23-3-31C134-8 116 4 85 4 32 4 16-35 15-94c0-66 23-100 70-100zm9 24c-40 0-46 34-46 75 0 40 6 74 45 74 42 0 51-32 51-76 0-42-9-74-50-73" id="A"/><g id="a"><use transform="matrix(0.06172839506172839,0,0,0.06172839506172839,0,0)" xlink:href="#u"/><use transform="matrix(0.06172839506172839,0,0,0.06172839506172839,13.518518518518517,0)" xlink:href="#v"/><use transform="matrix(0.06172839506172839,0,0,0.06172839506172839,20.864197530864196,0)" xlink:href="#w"/><use transform="matrix(0.06172839506172839,0,0,0.06172839506172839,33.20987654320987,0)" xlink:href="#x"/><use transform="matrix(0.06172839506172839,0,0,0.06172839506172839,45.55555555555555,0)" xlink:href="#y"/><use transform="matrix(0.06172839506172839,0,0,0.06172839506172839,51.72839506172839,0)" xlink:href="#z"/><use transform="matrix(0.06172839506172839,0,0,0.06172839506172839,64.07407407407408,0)" xlink:href="#x"/><use transform="matrix(0.06172839506172839,0,0,0.06172839506172839,76.41975308641976,0)" xlink:href="#A"/></g><path fill="#333" d="M87 75C49 33 22-17 22-94c0-76 28-126 65-167h31c-38 41-64 92-64 168S80 34 118 75H87" id="B"/><path fill="#333" d="M190 0L58-211 59 0H30v-248h39L202-35l-2-213h31V0h-41" id="C"/><path fill="#333" d="M143 4C61 4 22-44 18-125c-5-107 100-154 193-111 17 8 29 25 37 43l-32 9c-13-25-37-40-76-40-61 0-88 39-88 99 0 61 29 100 91 101 35 0 62-11 79-27v-45h-74v-28h105v86C228-13 192 4 143 4" id="D"/><path fill="#333" d="M33 0v-248h34V0H33" id="E"/><path fill="#333" d="M195 0l-74-108L45 0H8l94-129-87-119h37l69 98 67-98h37l-84 118L233 0h-38" id="F"/><path fill="#333" d="M33-261c38 41 65 92 65 168S71 34 33 75H2C39 34 66-17 66-93S39-220 2-261h31" id="G"/><g id="b"><use transform="matrix(0.06172839506172839,0,0,0.06172839506172839,0,0)" xlink:href="#B"/><use transform="matrix(0.06172839506172839,0,0,0.06172839506172839,7.345679012345679,0)" xlink:href="#C"/><use transform="matrix(0.06172839506172839,0,0,0.06172839506172839,23.333333333333332,0)" xlink:href="#D"/><use transform="matrix(0.06172839506172839,0,0,0.06172839506172839,40.61728395061728,0)" xlink:href="#E"/><use transform="matrix(0.06172839506172839,0,0,0.06172839506172839,46.79012345679012,0)" xlink:href="#C"/><use transform="matrix(0.06172839506172839,0,0,0.06172839506172839,62.77777777777777,0)" xlink:href="#F"/><use transform="matrix(0.06172839506172839,0,0,0.06172839506172839,77.59259259259258,0)" xlink:href="#G"/></g><path fill="#333" d="M160-131c35 5 61 23 61 61C221 17 115-2 30 0v-248c76 3 177-17 177 60 0 33-19 50-47 57zm-97-11c50-1 110 9 110-42 0-47-63-36-110-37v79zm0 115c55-2 124 14 124-45 0-56-70-42-124-44v89" id="H"/><path fill="#333" d="M141-36C126-15 110 5 73 4 37 3 15-17 15-53c-1-64 63-63 125-63 3-35-9-54-41-54-24 1-41 7-42 31l-33-3c5-37 33-52 76-52 45 0 72 20 72 64v82c-1 20 7 32 28 27v20c-31 9-61-2-59-35zM48-53c0 20 12 33 32 33 41-3 63-29 60-74-43 2-92-5-92 41" id="I"/><path fill="#333" d="M96-169c-40 0-48 33-48 73s9 75 48 75c24 0 41-14 43-38l32 2c-6 37-31 61-74 61-59 0-76-41-82-99-10-93 101-131 147-64 4 7 5 14 7 22l-32 3c-4-21-16-35-41-35" id="J"/><path fill="#333" d="M143 0L79-87 56-68V0H24v-261h32v163l83-92h37l-77 82L181 0h-38" id="K"/><g id="c"><use transform="matrix(0.06172839506172839,0,0,0.06172839506172839,0,0)" xlink:href="#H"/><use transform="matrix(0.06172839506172839,0,0,0.06172839506172839,14.814814814814813,0)" xlink:href="#I"/><use transform="matrix(0.06172839506172839,0,0,0.06172839506172839,27.160493827160494,0)" xlink:href="#J"/><use transform="matrix(0.06172839506172839,0,0,0.06172839506172839,38.27160493827161,0)" xlink:href="#K"/><use transform="matrix(0.06172839506172839,0,0,0.06172839506172839,49.38271604938272,0)" xlink:href="#z"/><use transform="matrix(0.06172839506172839,0,0,0.06172839506172839,61.7283950617284,0)" xlink:href="#x"/><use transform="matrix(0.06172839506172839,0,0,0.06172839506172839,74.07407407407408,0)" xlink:href="#A"/></g><path fill="#333" d="M127-220V0H93v-220H8v-28h204v28h-85" id="L"/><path fill="#333" d="M210-169c-67 3-38 105-44 169h-31v-121c0-29-5-50-35-48C34-165 62-65 56 0H25l-1-190h30c1 10-1 24 2 32 10-44 99-50 107 0 11-21 27-35 58-36 85-2 47 119 55 194h-31v-121c0-29-5-49-35-48" id="M"/><g id="d"><use transform="matrix(0.06172839506172839,0,0,0.06172839506172839,0,0)" xlink:href="#B"/><use transform="matrix(0.06172839506172839,0,0,0.06172839506172839,7.345679012345679,0)" xlink:href="#L"/><use transform="matrix(0.06172839506172839,0,0,0.06172839506172839,18.39506172839506,0)" xlink:href="#w"/><use transform="matrix(0.06172839506172839,0,0,0.06172839506172839,30.74074074074074,0)" xlink:href="#M"/><use transform="matrix(0.06172839506172839,0,0,0.06172839506172839,49.19753086419753,0)" xlink:href="#J"/><use transform="matrix(0.06172839506172839,0,0,0.06172839506172839,60.308641975308646,0)" xlink:href="#I"/><use transform="matrix(0.06172839506172839,0,0,0.06172839506172839,72.65432098765433,0)" xlink:href="#y"/><use transform="matrix(0.06172839506172839,0,0,0.06172839506172839,78.82716049382717,0)" xlink:href="#G"/></g><path fill="#333" d="M30-248c118-7 216 8 213 122C240-48 200 0 122 0H30v-248zM63-27c89 8 146-16 146-99s-60-101-146-95v194" id="N"/><g id="e"><use transform="matrix(0.06172839506172839,0,0,0.06172839506172839,0,0)" xlink:href="#N"/><use transform="matrix(0.06172839506172839,0,0,0.06172839506172839,15.987654320987653,0)" xlink:href="#H"/></g><path fill="#333" d="M176-78C186 10 51 31 16-35c-5-9-9-19-11-32l52-8c4 21 12 37 35 38 23 0 32-16 32-40v-130H75v-41h101v170" id="O"/><path fill="#333" d="M24-248c120-7 223 5 221 122C244-46 201 0 124 0H24v-248zM76-40c74 7 117-18 117-86 0-67-45-88-117-82v168" id="P"/><path fill="#333" d="M182-130c37 4 62 22 62 59C244 23 116-4 24 0v-248c84 5 203-23 205 63 0 31-19 50-47 55zM76-148c40-3 101 13 101-30 0-44-60-28-101-31v61zm0 110c48-3 116 14 116-37 0-48-69-32-116-35v72" id="Q"/><path fill="#333" d="M67-125c0 53 21 87 73 88 37 1 54-22 65-47l45 17C233-25 199 4 140 4 58 4 20-42 15-125 8-235 124-281 211-232c18 10 29 29 36 50l-46 12c-8-25-30-41-62-41-52 0-71 34-72 86" id="R"/><g id="f"><use transform="matrix(0.04938271604938272,0,0,0.04938271604938272,0,0)" xlink:href="#O"/><use transform="matrix(0.04938271604938272,0,0,0.04938271604938272,9.876543209876544,0)" xlink:href="#P"/><use transform="matrix(0.04938271604938272,0,0,0.04938271604938272,22.66666666666667,0)" xlink:href="#Q"/><use transform="matrix(0.04938271604938272,0,0,0.04938271604938272,35.4567901234568,0)" xlink:href="#R"/></g><path fill="#333" d="M67-93c0 74 22 123 53 168H70C40 30 18-18 18-93s22-123 52-168h50c-32 44-53 94-53 168" id="S"/><path fill="#333" d="M128-127c34 4 56 21 59 58 7 91-148 94-172 28-4-9-6-17-7-26l51-5c1 24 16 35 40 36 23 0 39-12 38-36-1-31-31-36-65-34v-40c32 2 59-3 59-33 0-20-13-33-34-33s-33 13-35 32l-50-3c6-44 37-68 86-68 50 0 83 20 83 66 0 35-22 52-53 58" id="T"/><path fill="#333" d="M101-251c68 0 84 54 84 127C185-50 166 4 99 4S15-52 14-124c-1-75 17-127 87-127zm-1 216c37-5 36-46 36-89s4-89-36-89c-39 0-36 45-36 89 0 43-3 85 36 89" id="U"/><path fill="#333" d="M115-159c48 0 72 30 72 78 0 54-30 85-83 85-64 0-91-50-91-122 0-98 58-163 141-120 15 8 21 24 27 44l-47 6c-5-31-48-31-61-4-7 14-11 33-11 60 9-17 28-27 53-27zM102-35c24 0 36-20 36-45s-11-43-37-43c-23 0-36 14-36 38 0 27 11 50 37 50" id="V"/><path fill="#333" d="M102-93c0 74-22 123-52 168H0C30 29 54-18 53-93c0-74-22-123-53-168h50c30 45 52 94 52 168" id="W"/><g id="g"><use transform="matrix(0.04938271604938272,0,0,0.04938271604938272,0,0)" xlink:href="#S"/><use transform="matrix(0.04938271604938272,0,0,0.04938271604938272,5.8765432098765435,0)" xlink:href="#T"/><use transform="matrix(0.04938271604938272,0,0,0.04938271604938272,15.753086419753087,0)" xlink:href="#T"/><use transform="matrix(0.04938271604938272,0,0,0.04938271604938272,25.629629629629633,0)" xlink:href="#U"/><use transform="matrix(0.04938271604938272,0,0,0.04938271604938272,35.50617283950618,0)" xlink:href="#V"/><use transform="matrix(0.04938271604938272,0,0,0.04938271604938272,45.38271604938272,0)" xlink:href="#W"/></g><path fill="#333" d="M212-179c-10-28-35-45-73-45-59 0-87 40-87 99 0 60 29 101 89 101 43 0 62-24 78-52l27 14C228-24 195 4 139 4 59 4 22-46 18-125c-6-104 99-153 187-111 19 9 31 26 39 46" id="X"/><g id="h"><use transform="matrix(0.06172839506172839,0,0,0.06172839506172839,0,0)" xlink:href="#X"/><use transform="matrix(0.06172839506172839,0,0,0.06172839506172839,15.987654320987653,0)" xlink:href="#w"/><use transform="matrix(0.06172839506172839,0,0,0.06172839506172839,28.333333333333332,0)" xlink:href="#v"/><use transform="matrix(0.06172839506172839,0,0,0.06172839506172839,35.67901234567901,0)" xlink:href="#z"/></g><path fill="#333" d="M115-194c55 1 70 41 70 98S169 2 115 4C84 4 66-9 55-30l1 105H24l-1-265h31l2 30c10-21 28-34 59-34zm-8 174c40 0 45-34 45-75s-6-73-45-74c-42 0-51 32-51 76 0 43 10 73 51 73" id="Y"/><path fill="#333" d="M135-143c-3-34-86-38-87 0 15 53 115 12 119 90S17 21 10-45l28-5c4 36 97 45 98 0-10-56-113-15-118-90-4-57 82-63 122-42 12 7 21 19 24 35" id="Z"/><g id="i"><use transform="matrix(0.06172839506172839,0,0,0.06172839506172839,0,0)" xlink:href="#X"/><use transform="matrix(0.06172839506172839,0,0,0.06172839506172839,15.987654320987653,0)" xlink:href="#w"/><use transform="matrix(0.06172839506172839,0,0,0.06172839506172839,28.333333333333332,0)" xlink:href="#M"/><use transform="matrix(0.06172839506172839,0,0,0.06172839506172839,46.79012345679012,0)" xlink:href="#Y"/><use transform="matrix(0.06172839506172839,0,0,0.06172839506172839,59.1358024691358,0)" xlink:href="#w"/><use transform="matrix(0.06172839506172839,0,0,0.06172839506172839,71.48148148148148,0)" xlink:href="#Z"/><use transform="matrix(0.06172839506172839,0,0,0.06172839506172839,82.5925925925926,0)" xlink:href="#z"/><use transform="matrix(0.06172839506172839,0,0,0.06172839506172839,94.93827160493828,0)" xlink:href="#v"/></g><path fill="#5b5b5b" d="M106-169C34-169 62-67 57 0H25v-261h32l-1 103c12-21 28-36 61-36 89 0 53 116 60 194h-32v-121c2-32-8-49-39-48" id="aa"/><path fill="#5b5b5b" d="M59-47c-2 24 18 29 38 22v24C64 9 27 4 27-40v-127H5v-23h24l9-43h21v43h35v23H59v120" id="ab"/><path fill="#5b5b5b" d="M115-194c55 1 70 41 70 98S169 2 115 4C84 4 66-9 55-30l1 105H24l-1-265h31l2 30c10-21 28-34 59-34zm-8 174c40 0 45-34 45-75s-6-73-45-74c-42 0-51 32-51 76 0 43 10 73 51 73" id="ac"/><path fill="#5b5b5b" d="M33-154v-36h34v36H33zM33 0v-36h34V0H33" id="ad"/><path fill="#5b5b5b" d="M0 4l72-265h28L28 4H0" id="ae"/><path fill="#5b5b5b" d="M100-194c63 0 86 42 84 106H49c0 40 14 67 53 68 26 1 43-12 49-29l28 8c-11 28-37 45-77 45C44 4 14-33 15-96c1-61 26-98 85-98zm52 81c6-60-76-77-97-28-3 7-6 17-6 28h103" id="af"/><path fill="#5b5b5b" d="M141 0L90-78 38 0H4l68-98-65-92h35l48 74 47-74h35l-64 92 68 98h-35" id="ag"/><path fill="#5b5b5b" d="M141-36C126-15 110 5 73 4 37 3 15-17 15-53c-1-64 63-63 125-63 3-35-9-54-41-54-24 1-41 7-42 31l-33-3c5-37 33-52 76-52 45 0 72 20 72 64v82c-1 20 7 32 28 27v20c-31 9-61-2-59-35zM48-53c0 20 12 33 32 33 41-3 63-29 60-74-43 2-92-5-92 41" id="ah"/><path fill="#5b5b5b" d="M210-169c-67 3-38 105-44 169h-31v-121c0-29-5-50-35-48C34-165 62-65 56 0H25l-1-190h30c1 10-1 24 2 32 10-44 99-50 107 0 11-21 27-35 58-36 85-2 47 119 55 194h-31v-121c0-29-5-49-35-48" id="ai"/><path fill="#5b5b5b" d="M24 0v-261h32V0H24" id="aj"/><path fill="#5b5b5b" d="M33 0v-38h34V0H33" id="ak"/><path fill="#5b5b5b" d="M96-169c-40 0-48 33-48 73s9 75 48 75c24 0 41-14 43-38l32 2c-6 37-31 61-74 61-59 0-76-41-82-99-10-93 101-131 147-64 4 7 5 14 7 22l-32 3c-4-21-16-35-41-35" id="al"/><path fill="#5b5b5b" d="M100-194c62-1 85 37 85 99 1 63-27 99-86 99S16-35 15-95c0-66 28-99 85-99zM99-20c44 1 53-31 53-75 0-43-8-75-51-75s-53 32-53 75 10 74 51 75" id="am"/><g id="k"><use transform="matrix(0.01243781094527363,0,0,0.01243781094527363,0,0)" xlink:href="#aa"/><use transform="matrix(0.01243781094527363,0,0,0.01243781094527363,2.487562189054726,0)" xlink:href="#ab"/><use transform="matrix(0.01243781094527363,0,0,0.01243781094527363,3.731343283582089,0)" xlink:href="#ab"/><use transform="matrix(0.01243781094527363,0,0,0.01243781094527363,4.975124378109452,0)" xlink:href="#ac"/><use transform="matrix(0.01243781094527363,0,0,0.01243781094527363,7.462686567164178,0)" xlink:href="#ad"/><use transform="matrix(0.01243781094527363,0,0,0.01243781094527363,8.70646766169154,0)" xlink:href="#ae"/><use transform="matrix(0.01243781094527363,0,0,0.01243781094527363,9.950248756218905,0)" xlink:href="#ae"/><use transform="matrix(0.01243781094527363,0,0,0.01243781094527363,11.194029850746269,0)" xlink:href="#af"/><use transform="matrix(0.01243781094527363,0,0,0.01243781094527363,13.681592039800993,0)" xlink:href="#ag"/><use transform="matrix(0.01243781094527363,0,0,0.01243781094527363,15.920398009950247,0)" xlink:href="#ah"/><use transform="matrix(0.01243781094527363,0,0,0.01243781094527363,18.407960199004975,0)" xlink:href="#ai"/><use transform="matrix(0.01243781094527363,0,0,0.01243781094527363,22.12686567164179,0)" xlink:href="#ac"/><use transform="matrix(0.01243781094527363,0,0,0.01243781094527363,24.614427860696516,0)" xlink:href="#aj"/><use transform="matrix(0.01243781094527363,0,0,0.01243781094527363,25.59701492537313,0)" xlink:href="#af"/><use transform="matrix(0.01243781094527363,0,0,0.01243781094527363,28.08457711442786,0)" xlink:href="#ak"/><use transform="matrix(0.01243781094527363,0,0,0.01243781094527363,29.328358208955223,0)" xlink:href="#al"/><use transform="matrix(0.01243781094527363,0,0,0.01243781094527363,31.567164179104473,0)" xlink:href="#am"/><use transform="matrix(0.01243781094527363,0,0,0.01243781094527363,34.0547263681592,0)" xlink:href="#ai"/></g><path fill="#ef8d22" d="M186 0v-106H76V0H24v-248h52v99h110v-99h50V0h-50" id="an"/><path fill="#ef8d22" d="M136-208V0H84v-208H4v-40h212v40h-80" id="ao"/><path fill="#ef8d22" d="M24-248c93 1 206-16 204 79-1 75-69 88-152 82V0H24v-248zm52 121c47 0 100 7 100-41 0-47-54-39-100-39v80" id="ap"/><g id="l"><use transform="matrix(0.04938271604938272,0,0,0.04938271604938272,0,0)" xlink:href="#an"/><use transform="matrix(0.04938271604938272,0,0,0.04938271604938272,12.790123456790125,0)" xlink:href="#ao"/><use transform="matrix(0.04938271604938272,0,0,0.04938271604938272,23.60493827160494,0)" xlink:href="#ao"/><use transform="matrix(0.04938271604938272,0,0,0.04938271604938272,34.41975308641975,0)" xlink:href="#ap"/></g><path fill="#ef8d22" d="M67-93c0 74 22 123 53 168H70C40 30 18-18 18-93s22-123 52-168h50c-32 44-53 94-53 168" id="aq"/><path fill="#ef8d22" d="M138-131c27 9 52 24 51 61 0 53-36 74-89 74S11-19 11-69c0-35 22-54 51-61-78-25-46-121 38-121 51 0 83 19 83 66 0 30-18 49-45 54zm-38-16c24 0 32-13 32-36 1-23-11-34-32-34-22 0-33 12-32 34 0 22 9 36 32 36zm1 116c27 0 37-17 37-43 0-25-13-39-39-39-24 0-37 15-37 40 0 27 11 42 39 42" id="ar"/><path fill="#ef8d22" d="M101-251c68 0 84 54 84 127C185-50 166 4 99 4S15-52 14-124c-1-75 17-127 87-127zm-1 216c37-5 36-46 36-89s4-89-36-89c-39 0-36 45-36 89 0 43-3 85 36 89" id="as"/><path fill="#ef8d22" d="M102-93c0 74-22 123-52 168H0C30 29 54-18 53-93c0-74-22-123-53-168h50c30 45 52 94 52 168" id="at"/><g id="m"><use transform="matrix(0.04938271604938272,0,0,0.04938271604938272,0,0)" xlink:href="#aq"/><use transform="matrix(0.04938271604938272,0,0,0.04938271604938272,5.8765432098765435,0)" xlink:href="#ar"/><use transform="matrix(0.04938271604938272,0,0,0.04938271604938272,15.753086419753087,0)" xlink:href="#as"/><use transform="matrix(0.04938271604938272,0,0,0.04938271604938272,25.629629629629633,0)" xlink:href="#at"/></g><path fill="#ef8d22" d="M231 0h-52l-39-155L100 0H48L-1-190h46L77-45c9-52 24-97 36-145h53l37 145 32-145h46" id="au"/><path fill="#ef8d22" d="M24 0v-54h51V0H24" id="av"/><path fill="#ef8d22" d="M135-194c53 0 70 44 70 98 0 56-19 98-73 100-31 1-45-17-59-34 3 33 2 69 2 105H25l-1-265h48c2 10 0 23 3 31 11-24 29-35 60-35zM114-30c33 0 39-31 40-66 0-38-9-64-40-64-56 0-55 130 0 130" id="aw"/><path fill="#ef8d22" d="M121-226c-27-7-43 5-38 36h38v33H83V0H34v-157H6v-33h28c-9-59 32-81 87-68v32" id="ax"/><path fill="#ef8d22" d="M195-6C206 82 75 100 31 46c-4-6-6-13-8-21l49-6c3 16 16 24 34 25 40 0 42-37 40-79-11 22-30 35-61 35-53 0-70-43-70-97 0-56 18-96 73-97 30 0 46 14 59 34l2-30h47zm-90-29c32 0 41-27 41-63 0-35-9-62-40-62-32 0-39 29-40 63 0 36 9 62 39 62" id="ay"/><path fill="#ef8d22" d="M14-72v-43h91v43H14" id="az"/><path fill="#ef8d22" d="M85 4C-2 5 27-109 22-190h50c7 57-23 150 33 157 60-5 35-97 40-157h50l1 190h-47c-2-12 1-28-3-38-12 25-28 42-61 42" id="aA"/><path fill="#ef8d22" d="M135-194c87-1 58 113 63 194h-50c-7-57 23-157-34-157-59 0-34 97-39 157H25l-1-190h47c2 12-1 28 3 38 12-26 28-41 61-42" id="aB"/><path fill="#ef8d22" d="M185-48c-13 30-37 53-82 52C43 2 14-33 14-96s30-98 90-98c62 0 83 45 84 108H66c0 31 8 55 39 56 18 0 30-7 34-22zm-45-69c5-46-57-63-70-21-2 6-4 13-4 21h74" id="aC"/><path fill="#ef8d22" d="M88-194c31-1 46 15 58 34l-1-101h50l1 261h-48c-2-10 0-23-3-31C134-8 116 4 84 4 32 4 16-41 15-95c0-56 19-97 73-99zm17 164c33 0 40-30 41-66 1-37-9-64-41-64s-38 30-39 65c0 43 13 65 39 65" id="aD"/><path fill="#ef8d22" d="M190-63c-7 42-38 67-86 67-59 0-84-38-90-98-12-110 154-137 174-36l-49 2c-2-19-15-32-35-32-30 0-35 28-38 64-6 74 65 87 74 30" id="aE"/><path fill="#ef8d22" d="M147 0L96-86 75-71V0H25v-261h50v150l67-79h53l-66 74L201 0h-54" id="aF"/><path fill="#ef8d22" d="M137-138c1-29-70-34-71-4 15 46 118 7 119 86 1 83-164 76-172 9l43-7c4 19 20 25 44 25 33 8 57-30 24-41C81-84 22-81 20-136c-2-80 154-74 161-7" id="aG"/><path fill="#ef8d22" d="M110-194c64 0 96 36 96 99 0 64-35 99-97 99-61 0-95-36-95-99 0-62 34-99 96-99zm-1 164c35 0 45-28 45-65 0-40-10-65-43-65-34 0-45 26-45 65 0 36 10 65 43 65" id="aH"/><path fill="#ef8d22" d="M135-150c-39-12-60 13-60 57V0H25l-1-190h47c2 13-1 29 3 40 6-28 27-53 61-41v41" id="aI"/><g id="n"><use transform="matrix(0.04938271604938272,0,0,0.04938271604938272,0,0)" xlink:href="#au"/><use transform="matrix(0.04938271604938272,0,0,0.04938271604938272,13.827160493827162,0)" xlink:href="#au"/><use transform="matrix(0.04938271604938272,0,0,0.04938271604938272,27.654320987654323,0)" xlink:href="#au"/><use transform="matrix(0.04938271604938272,0,0,0.04938271604938272,40.839506172839506,0)" xlink:href="#av"/><use transform="matrix(0.04938271604938272,0,0,0.04938271604938272,45.77777777777778,0)" xlink:href="#aw"/><use transform="matrix(0.04938271604938272,0,0,0.04938271604938272,56.592592592592595,0)" xlink:href="#ax"/><use transform="matrix(0.04938271604938272,0,0,0.04938271604938272,62.46913580246914,0)" xlink:href="#ay"/><use transform="matrix(0.04938271604938272,0,0,0.04938271604938272,73.28395061728395,0)" xlink:href="#az"/><use transform="matrix(0.04938271604938272,0,0,0.04938271604938272,79.1604938271605,0)" xlink:href="#aA"/><use transform="matrix(0.04938271604938272,0,0,0.04938271604938272,89.9753086419753,0)" xlink:href="#aB"/><use transform="matrix(0.04938271604938272,0,0,0.04938271604938272,100.79012345679011,0)" xlink:href="#aC"/><use transform="matrix(0.04938271604938272,0,0,0.04938271604938272,110.66666666666666,0)" xlink:href="#aD"/><use transform="matrix(0.04938271604938272,0,0,0.04938271604938272,121.48148148148147,0)" xlink:href="#av"/><use transform="matrix(0.04938271604938272,0,0,0.04938271604938272,126.41975308641975,0)" xlink:href="#aD"/><use transform="matrix(0.04938271604938272,0,0,0.04938271604938272,137.23456790123456,0)" xlink:href="#aA"/><use transform="matrix(0.04938271604938272,0,0,0.04938271604938272,148.04938271604937,0)" xlink:href="#aE"/><use transform="matrix(0.04938271604938272,0,0,0.04938271604938272,157.92592592592592,0)" xlink:href="#aF"/><use transform="matrix(0.04938271604938272,0,0,0.04938271604938272,167.80246913580248,0)" xlink:href="#aD"/><use transform="matrix(0.04938271604938272,0,0,0.04938271604938272,178.6172839506173,0)" xlink:href="#aB"/><use transform="matrix(0.04938271604938272,0,0,0.04938271604938272,189.4320987654321,0)" xlink:href="#aG"/><use transform="matrix(0.04938271604938272,0,0,0.04938271604938272,199.30864197530866,0)" xlink:href="#av"/><use transform="matrix(0.04938271604938272,0,0,0.04938271604938272,204.24691358024694,0)" xlink:href="#aH"/><use transform="matrix(0.04938271604938272,0,0,0.04938271604938272,215.06172839506175,0)" xlink:href="#aI"/><use transform="matrix(0.04938271604938272,0,0,0.04938271604938272,221.97530864197532,0)" xlink:href="#ay"/></g><path fill="#ef8d22" d="M240-174c0 40-23 61-54 70L253 0h-59l-57-94H76V0H24v-248c93 4 217-23 216 74zM76-134c48-2 112 12 112-38 0-48-66-32-112-35v73" id="aJ"/><path fill="#ef8d22" d="M24 0v-248h195v40H76v63h132v40H76v65h150V0H24" id="aK"/><path fill="#ef8d22" d="M169-182c-1-43-94-46-97-3 18 66 151 10 154 114 3 95-165 93-204 36-6-8-10-19-12-30l50-8c3 46 112 56 116 5-17-69-150-10-154-114-4-87 153-88 188-35 5 8 8 18 10 28" id="aL"/><g id="o"><use transform="matrix(0.04938271604938272,0,0,0.04938271604938272,0,0)" xlink:href="#aJ"/><use transform="matrix(0.04938271604938272,0,0,0.04938271604938272,12.790123456790125,0)" xlink:href="#aK"/><use transform="matrix(0.04938271604938272,0,0,0.04938271604938272,24.641975308641978,0)" xlink:href="#aL"/><use transform="matrix(0.04938271604938272,0,0,0.04938271604938272,36.49382716049383,0)" xlink:href="#ao"/></g><path fill="#ef8d22" d="M115-159c48 0 72 30 72 78 0 54-30 85-83 85-64 0-91-50-91-122 0-98 58-163 141-120 15 8 21 24 27 44l-47 6c-5-31-48-31-61-4-7 14-11 33-11 60 9-17 28-27 53-27zM102-35c24 0 36-20 36-45s-11-43-37-43c-23 0-36 14-36 38 0 27 11 50 37 50" id="aM"/><path fill="#ef8d22" d="M165-50V0h-47v-50H5v-38l105-160h55v161h33v37h-33zm-47-37l2-116L46-87h72" id="aN"/><path fill="#ef8d22" d="M23 0v-37h61v-169l-59 37v-38l62-41h46v211h57V0H23" id="aO"/><g id="p"><use transform="matrix(0.04938271604938272,0,0,0.04938271604938272,0,0)" xlink:href="#aq"/><use transform="matrix(0.04938271604938272,0,0,0.04938271604938272,5.8765432098765435,0)" xlink:href="#aM"/><use transform="matrix(0.04938271604938272,0,0,0.04938271604938272,15.753086419753087,0)" xlink:href="#aN"/><use transform="matrix(0.04938271604938272,0,0,0.04938271604938272,25.629629629629633,0)" xlink:href="#as"/><use transform="matrix(0.04938271604938272,0,0,0.04938271604938272,35.50617283950618,0)" xlink:href="#as"/><use transform="matrix(0.04938271604938272,0,0,0.04938271604938272,45.38271604938272,0)" xlink:href="#aO"/><use transform="matrix(0.04938271604938272,0,0,0.04938271604938272,55.25925925925927,0)" xlink:href="#at"/></g><path fill="#333" d="M266 0h-40l-56-210L115 0H75L2-248h35L96-30l15-64 43-154h32l59 218 59-218h35" id="aP"/><path fill="#333" d="M115-194c53 0 69 39 70 98 0 66-23 100-70 100C84 3 66-7 56-30L54 0H23l1-261h32v101c10-23 28-34 59-34zm-8 174c40 0 45-34 45-75 0-40-5-75-45-74-42 0-51 32-51 76 0 43 10 73 51 73" id="aQ"/><g id="q"><use transform="matrix(0.06172839506172839,0,0,0.06172839506172839,0,0)" xlink:href="#aP"/><use transform="matrix(0.06172839506172839,0,0,0.06172839506172839,20.493827160493826,0)" xlink:href="#z"/><use transform="matrix(0.06172839506172839,0,0,0.06172839506172839,32.839506172839506,0)" xlink:href="#aQ"/></g><path fill="#333" d="M206 0h-36l-40-164L89 0H53L-1-190h32L70-26l43-164h34l41 164 42-164h31" id="aR"/><g id="r"><use transform="matrix(0.06172839506172839,0,0,0.06172839506172839,0,0)" xlink:href="#H"/><use transform="matrix(0.06172839506172839,0,0,0.06172839506172839,14.814814814814813,0)" xlink:href="#v"/><use transform="matrix(0.06172839506172839,0,0,0.06172839506172839,22.160493827160494,0)" xlink:href="#w"/><use transform="matrix(0.06172839506172839,0,0,0.06172839506172839,34.50617283950617,0)" xlink:href="#aR"/><use transform="matrix(0.06172839506172839,0,0,0.06172839506172839,50.49382716049382,0)" xlink:href="#Z"/><use transform="matrix(0.06172839506172839,0,0,0.06172839506172839,61.60493827160494,0)" xlink:href="#z"/><use transform="matrix(0.06172839506172839,0,0,0.06172839506172839,73.95061728395062,0)" xlink:href="#v"/></g><path fill="#333" d="M24 0v-261h32V0H24" id="aS"/><path fill="#333" d="M24-231v-30h32v30H24zM24 0v-190h32V0H24" id="aT"/><g id="s"><use transform="matrix(0.06172839506172839,0,0,0.06172839506172839,0,0)" xlink:href="#X"/><use transform="matrix(0.06172839506172839,0,0,0.06172839506172839,15.987654320987653,0)" xlink:href="#aS"/><use transform="matrix(0.06172839506172839,0,0,0.06172839506172839,20.864197530864196,0)" xlink:href="#aT"/><use transform="matrix(0.06172839506172839,0,0,0.06172839506172839,25.74074074074074,0)" xlink:href="#z"/><use transform="matrix(0.06172839506172839,0,0,0.06172839506172839,38.08641975308642,0)" xlink:href="#x"/><use transform="matrix(0.06172839506172839,0,0,0.06172839506172839,50.432098765432094,0)" xlink:href="#y"/></g><path fill="#333" d="M185-189c-5-48-123-54-124 2 14 75 158 14 163 119 3 78-121 87-175 55-17-10-28-26-33-46l33-7c5 56 141 63 141-1 0-78-155-14-162-118-5-82 145-84 179-34 5 7 8 16 11 25" id="aU"/><path fill="#333" d="M108 0H70L1-190h34L89-25l56-165h34" id="aV"/><g id="t"><use transform="matrix(0.06172839506172839,0,0,0.06172839506172839,0,0)" xlink:href="#aU"/><use transform="matrix(0.06172839506172839,0,0,0.06172839506172839,14.814814814814813,0)" xlink:href="#z"/><use transform="matrix(0.06172839506172839,0,0,0.06172839506172839,27.160493827160494,0)" xlink:href="#v"/><use transform="matrix(0.06172839506172839,0,0,0.06172839506172839,34.50617283950617,0)" xlink:href="#aV"/><use transform="matrix(0.06172839506172839,0,0,0.06172839506172839,45.61728395061728,0)" xlink:href="#z"/><use transform="matrix(0.06172839506172839,0,0,0.06172839506172839,57.962962962962955,0)" xlink:href="#v"/></g></defs></g></svg>